<svg xmlns="http://www.w3.org/2000/svg" aria-hidden="true" style="position:absolute;width:0;height:0;overflow:hidden"><defs>
<symbol id="icon-close" viewBox="0 0 32 32"><path d="M7.708 6.97c-.188.053-.461.269-.606.479-.196.285-.203.809-.014 1.085.069.102 1.762 1.825 3.759 3.827L14.48 16l-3.633 3.641c-1.997 2.001-3.69 3.724-3.759 3.826-.189.276-.182.8.014 1.085.305.443.788.61 1.258.436.22-.082.751-.591 3.948-3.78l3.694-3.686 3.639 3.632c2.002 1.998 3.717 3.685 3.813 3.75.1.068.291.129.453.145.237.025.324.005.571-.125.239-.126.32-.207.446-.446.13-.246.149-.334.125-.571a1.104 1.104 0 0 0-.148-.459l.003.005c-.065-.096-1.753-1.811-3.75-3.813l-3.632-3.639 3.686-3.694c3.189-3.197 3.698-3.728 3.78-3.948.174-.469.006-.953-.436-1.258-.285-.196-.809-.203-1.085-.014-.102.069-1.825 1.762-3.826 3.759L16 14.479l-3.639-3.633c-2.002-1.997-3.718-3.685-3.814-3.75-.175-.118-.625-.188-.838-.127z"/></symbol>
<symbol id="icon-copyright" viewBox="0 0 32 32"><path fill="none" stroke="#a3a5a3" stroke-linecap="round" stroke-linejoin="round" stroke-width="3" d="M20 13.5s-1.5-2-4-2-4.5 2-4.5 4.5 2 4.5 4.5 4.5 4-2 4-2m8.5-2.5c0 6.904-5.596 12.5-12.5 12.5S3.5 22.904 3.5 16 9.096 3.5 16 3.5 28.5 9.096 28.5 16z" style="stroke:var(--color1, #a3a5a3)"/></symbol>
<symbol id="icon-email" viewBox="0 0 32 32"><path d="M26.88 5.6H5.12c-1.496 0-2.706 1.17-2.706 2.6L2.4 23.8c0 1.43 1.224 2.6 2.72 2.6h21.76c1.496 0 2.72-1.17 2.72-2.6V8.2c0-1.43-1.224-2.6-2.72-2.6zm-.544 5.525-9.615 5.746a1.43 1.43 0 0 1-1.442 0l-9.615-5.746c-.136-.073-.256-.172-.351-.291s-.164-.254-.203-.399a1.052 1.052 0 0 1 .14-.859 1.14 1.14 0 0 1 .747-.497 1.207 1.207 0 0 1 .891.174L16 14.7l9.112-5.447a1.193 1.193 0 0 1 .891-.174c.153.03.298.09.427.175a1.115 1.115 0 0 1 .482.738 1.067 1.067 0 0 1-.225.842 1.165 1.165 0 0 1-.351.291z"/></symbol>
<symbol id="icon-phone" viewBox="0 0 32 32"><path d="M21.415 1.6H10.584c-.898 0-1.758.345-2.393.959S7.2 4.005 7.2 4.873v22.255c0 .868.357 1.7.991 2.314s1.496.959 2.393.959h10.831c.898 0 1.759-.345 2.393-.959s.991-1.446.991-2.314V4.873c0-.868-.357-1.7-.991-2.314S22.312 1.6 21.415 1.6zm-5.416 27.491c-1.124 0-2.031-.877-2.031-1.964s.907-1.964 2.031-1.964 2.031.877 2.031 1.964-.907 1.964-2.031 1.964zm6.092-5.236H9.906V5.528h12.185v18.327z"/></symbol>
<symbol id="icon-place" viewBox="0 0 32 32"><path d="M16 2.4c-5.307 0-9.6 4.257-9.6 9.52C6.4 19.06 16 29.6 16 29.6s9.6-10.54 9.6-17.68c0-5.263-4.293-9.52-9.6-9.52zm0 12.92c-.909 0-1.781-.358-2.424-.996s-1.004-1.502-1.004-2.404c0-.902.361-1.767 1.004-2.404a3.446 3.446 0 0 1 4.848 0 3.384 3.384 0 0 1 0 4.808A3.446 3.446 0 0 1 16 15.32z"/></symbol>
<symbol id="icon-facebook" viewBox="0 0 32 32"><path d="M16.001 2.72c-7.333 0-13.333 5.987-13.333 13.36 0 6.667 4.88 12.2 11.253 13.2v-9.333h-3.387V16.08h3.387v-2.947c0-3.347 1.987-5.187 5.04-5.187 1.453 0 2.973.253 2.973.253v3.293h-1.68c-1.653 0-2.173 1.027-2.173 2.08v2.507h3.707l-.6 3.867h-3.107v9.333a13.332 13.332 0 0 0 11.254-13.2c0-7.373-6-13.36-13.333-13.36z"/></symbol>
<symbol id="icon-instagram" viewBox="0 0 32 32"><path d="M10.401 2.667h11.2a7.739 7.739 0 0 1 7.733 7.733v11.2a7.733 7.733 0 0 1-7.733 7.733h-11.2A7.739 7.739 0 0 1 2.668 21.6V10.4a7.733 7.733 0 0 1 7.733-7.733zm-.267 2.666a4.8 4.8 0 0 0-4.8 4.8v11.733c0 2.653 2.147 4.8 4.8 4.8h11.733a4.8 4.8 0 0 0 4.8-4.8V10.133c0-2.653-2.147-4.8-4.8-4.8H10.134zm12.867 2a1.667 1.667 0 1 1 0 3.332 1.667 1.667 0 0 1 0-3.331zm-7 2a6.67 6.67 0 0 1 4.714 11.381 6.67 6.67 0 0 1-9.428 0 6.67 6.67 0 0 1 0-9.428 6.67 6.67 0 0 1 4.714-1.953zm0 2.667a4.003 4.003 0 0 0-4 4 4.003 4.003 0 0 0 4 4 4.003 4.003 0 0 0 4-4 4.001 4.001 0 0 0-4-4z"/></symbol>
<symbol id="icon-left" viewBox="0 0 32 32"><path d="M19.794 26.4a1.075 1.075 0 0 1-.712-.283l-9.991-9.844a.989.989 0 0 1 0-1.402l9.991-9.844a1.02 1.02 0 0 1 1.357.066.99.99 0 0 1 .067 1.337l-9.291 9.143 9.291 9.143a.989.989 0 0 1 0 1.402 1.07 1.07 0 0 1-.712.283z"/></symbol>
<symbol id="icon-logo" viewBox="0 0 32 32"><path d="M28.315 6.422 18.618 1.13C17.913.745 16.983.533 16 .533s-1.913.212-2.618.597L3.685 6.422c-1.468.801-2.618 2.684-2.618 4.286v10.586c0 1.602 1.15 3.485 2.618 4.286l9.697 5.291c.705.385 1.635.597 2.618.597s1.913-.212 2.618-.597l9.697-5.293c1.468-.801 2.618-2.684 2.618-4.286V10.707c0-1.598-1.15-3.482-2.618-4.283zM4.226 24.69c-1.125-.614-2.076-2.17-2.076-3.398v-4.524c3.453-.257 5.498.608 8.052 1.694 2.298.978 5.062 2.152 9.577 2.784-.844.153-1.696.294-2.545.434-4.612.761-8.973 1.485-11.357 3.911l-1.651-.901zm14.567-9.207c-2.084.783-4.798 1.485-8.811 1.764-1.774-.745-3.464-1.375-5.677-1.52l7.374-6.969 7.115 6.725zm-.516-1.936 5.302-5.011 3.985 3.767c-2.294.197-3.9.966-5.68 1.822-.62.298-1.28.615-2.014.928l-1.593-1.506zm11.572 7.745c0 1.228-.95 2.784-2.076 3.398l-9.698 5.292c-.534.292-1.29.461-2.075.461s-1.542-.167-2.076-.46L6.84 26.116c2.187-2.042 6.272-2.716 10.582-3.427 4.858-.8 9.859-1.627 12.428-4.592l-.001 3.194zm0-5.109c-1.14 2.337-3.733 3.562-6.823 4.368-5.323-.365-8.46-1.408-11.032-2.458 5.258-.595 8.072-1.947 10.381-3.058 2.274-1.094 4.096-1.964 7.473-1.715v2.863zm0-3.891a17.715 17.715 0 0 0-.803-.039l-5.082-4.804a.564.564 0 0 0-.766 0l-5.684 5.373-5.451-5.151a.564.564 0 0 0-.766 0l-8.502 8.037c-.209.007-.422.017-.64.032v-5.032c0-1.228.951-2.785 2.076-3.398l9.698-5.292c.535-.292 1.292-.46 2.076-.46s1.542.167 2.076.46l9.698 5.292c1.125.614 2.076 2.17 2.076 3.398l-.003 1.583z"/></symbol>
<symbol id="icon-right" viewBox="0 0 32 32"><path d="M12.206 26.4c.265-.004.519-.105.712-.283l9.991-9.844a.989.989 0 0 0 0-1.402l-9.991-9.844a1.02 1.02 0 0 0-1.357.066.987.987 0 0 0-.067 1.337l9.291 9.143-9.291 9.143a.989.989 0 0 0 0 1.402c.193.178.447.28.712.283z"/></symbol>
<symbol id="icon-star-small" viewBox="0 0 32 32"><path d="M15.366 4.618c.199-.614 1.069-.614 1.268 0l2.21 6.801a.666.666 0 0 0 .634.461h7.151c.646 0 .914.826.392 1.206l-5.785 4.203a.666.666 0 0 0-.242.745l2.21 6.801c.2.614-.503 1.125-1.026.745l-5.785-4.203a.666.666 0 0 0-.784 0L9.824 25.58c-.522.38-1.225-.131-1.026-.745l2.21-6.801a.667.667 0 0 0-.242-.745l-5.785-4.203c-.522-.38-.254-1.206.392-1.206h7.151a.666.666 0 0 0 .634-.461l2.21-6.801z"/></symbol>
<symbol id="icon-round" viewBox="0 0 32 32">
<path d="M15.999 9.333c-7.36 0-13.333 2.987-13.333 6.667 0 2.987 3.92 5.507 9.333 6.36v2.693c0 0.6 0.72 0.893 1.133 0.467l3.72-3.72c0.267-0.267 0.267-0.68 0-0.947l-3.72-3.72c-0.094-0.092-0.213-0.154-0.342-0.179s-0.263-0.010-0.384 0.041c-0.121 0.051-0.225 0.137-0.297 0.247s-0.111 0.239-0.11 0.37v2.027c-4.2-0.747-6.667-2.533-6.667-3.64 0-1.413 4.053-4 10.667-4s10.667 2.587 10.667 4c0 0.88-1.6 2.24-4.427 3.12-0.547 0.173-0.907 0.68-0.907 1.253 0 0.893 0.867 1.547 1.707 1.28 3.773-1.173 6.293-3.267 6.293-5.653 0-3.68-5.973-6.667-13.333-6.667z"></path>
</symbol>
<symbol id="icon-telegram" viewBox="0 0 32 32"><path d="M15.993 2.667A13.336 13.336 0 0 0 2.915 18.602a13.327 13.327 0 0 0 10.476 10.476 13.34 13.34 0 0 0 13.688-5.67A13.334 13.334 0 0 0 15.993 2.667zm4.24 20.202c-.05.125-.126.237-.222.33s-.212.164-.339.208a.946.946 0 0 1-.775-.069l-3.62-2.813-2.323 2.144a.397.397 0 0 1-.38.052l.445-3.985.013.012.009-.079s6.513-5.931 6.779-6.183c.269-.252.18-.307.18-.307.016-.307-.481 0-.481 0l-8.631 5.552-3.593-1.224s-.552-.197-.604-.633c-.055-.432.621-.667.621-.667L21.601 9.53s1.175-.523 1.175.344l-2.544 12.995z"/></symbol></defs></svg>